<svg width="41" height="32" viewBox="0 0 41 32" fill="none" xmlns="http://www.w3.org/2000/svg">
<path d="M5.49266 29.2189C3.80664 29.2189 2.79848 28.2107 2.79848 26.5074V25.447L8.13472 20.7887C8.89952 20.1108 9.73385 19.7632 10.4986 19.7632C11.3504 19.7632 12.2368 20.1108 13.0016 20.8235L16.3216 23.8132L24.6302 16.4432C25.4818 15.6784 26.4378 15.3308 27.4286 15.3308C28.3846 15.3308 29.3754 15.6958 30.1924 16.4607L38.188 23.8652V26.5421C38.188 28.2107 37.1625 29.2189 35.5112 29.2189H5.49266ZM5.45791 32H35.5285C39.1788 32 40.9864 30.2097 40.9864 26.629V5.38838C40.9864 1.80771 39.1788 0 35.5285 0H5.45791C1.8251 0 0 1.80771 0 5.38838V26.629C0 30.2097 1.8251 32 5.45791 32Z" fill="#898989"/>
<path d="M13.0364 16.4432C10.6724 16.4432 8.74304 14.5139 8.74304 12.15C8.74304 9.8034 10.6724 7.85663 13.0364 7.85663C15.3829 7.85663 17.3123 9.8034 17.3123 12.15C17.3123 14.5139 15.3829 16.4432 13.0364 16.4432Z" fill="white"/>
</svg>
