<svg width="97" height="77" viewBox="0 0 97 77" fill="none" xmlns="http://www.w3.org/2000/svg">
<path d="M50.3636 18.9539C49.8228 18.8068 49.5149 18.2881 49.6762 17.7948C51.5546 12.0355 57.4051 7.80682 64.3663 7.80682C64.9304 7.80682 65.388 8.22429 65.388 8.73897C65.388 9.25364 64.9304 9.67112 64.3663 9.67112C58.532 9.67112 53.2965 13.2299 51.6342 18.326C51.4744 18.8187 50.9066 19.1017 50.3637 18.9538L50.3636 18.9539Z" fill="#DC3545"/>
<path d="M78.6689 54.4141H72.539C71.9749 54.4141 71.5173 53.9966 71.5173 53.4819C71.5173 52.9672 71.9749 52.5498 72.539 52.5498H78.6689C87.1188 52.5498 93.9939 46.2771 93.9939 38.5677C93.9939 30.8583 87.1188 24.5857 78.6689 24.5857H78.5215C78.2252 24.5857 77.9435 24.4685 77.7494 24.2641C77.5553 24.0597 77.4677 23.7887 77.5101 23.521C77.6013 22.9405 77.6473 22.3572 77.6473 21.7893C77.6473 15.1079 71.6887 9.67143 64.3655 9.67143C61.5166 9.67143 58.7996 10.4837 56.5081 12.0211C56.0046 12.3586 55.2894 12.2088 54.9982 11.7035C48.5085 0.42865 31.558 -1.08544 22.7701 8.72266C19.068 12.8547 17.6135 18.2298 18.779 23.4685C18.9075 24.0471 18.4222 24.5864 17.7778 24.5864H17.3684C8.91857 24.5864 2.04343 30.8591 2.04343 38.5684C2.04343 46.2778 8.91857 52.5505 17.3684 52.5505H23.4983C24.0624 52.5505 24.52 52.9679 24.52 53.4826C24.52 53.9973 24.0624 54.4148 23.4983 54.4148H17.3684C7.79167 54.4148 0 47.3059 0 38.5684C0 30.076 7.36031 23.1222 16.5664 22.7387C15.7016 17.3036 17.3553 11.8213 21.1879 7.54286C30.5967 -2.95898 48.6279 -1.78186 56.2502 9.92845C58.6818 8.53756 61.4643 7.8079 64.3652 7.8079C73.2376 7.8079 80.2682 14.6978 79.653 22.7474C88.7743 23.2141 96.0369 30.1312 96.0369 38.5677C96.0369 47.3059 88.2452 54.4141 78.6685 54.4141L78.6689 54.4141Z" fill="#DC3545"/>
<path d="M47.8815 76.2592C33.7978 76.2592 22.3396 65.8052 22.3396 52.9555C22.3396 40.1059 33.7976 29.6518 47.8815 29.6518C61.9655 29.6518 73.4235 40.1057 73.4235 52.9555C73.4235 65.8051 61.9655 76.2592 47.8815 76.2592ZM47.8815 31.5165C34.9247 31.5165 24.3834 41.1342 24.3834 52.9555C24.3834 64.7769 34.9249 74.3945 47.8815 74.3945C60.8382 74.3945 71.3797 64.7768 71.3797 52.9555C71.3797 41.134 60.8382 31.5165 47.8815 31.5165Z" fill="#DC3545"/>
<path d="M48.3486 63.019C47.9356 63.019 47.6006 62.7134 47.6006 62.3366V44.5933C47.6006 44.2165 47.9356 43.9108 48.3486 43.9108C48.7616 43.9108 49.0965 44.2165 49.0965 44.5933V62.3366C49.0965 62.7139 48.7616 63.019 48.3486 63.019Z" fill="#DC3545"/>
<path d="M54.3324 50.7365C54.1411 50.7365 53.9493 50.6697 53.8034 50.5366L48.3486 45.5598L42.8937 50.5366C42.602 50.8033 42.1281 50.8033 41.8359 50.5366C41.5436 50.27 41.5436 49.8381 41.8359 49.5715L47.8196 44.1121C48.1113 43.8455 48.5852 43.8455 48.8775 44.1121L54.8612 49.5715C55.1535 49.8381 55.1535 50.27 54.8612 50.5366C54.7154 50.6702 54.5236 50.7365 54.3323 50.7365H54.3324Z" fill="#DC3545"/>
</svg>
